<svg xmlns="http://www.w3.org/2000/svg" viewBox="830 744 390 390" role="img" aria-label="Faris Danial logo">
  <path fill="#09090B" d="M 1013.13 751.954 C 1016.09 751.802 1016.76 751.428 1019.22 753.009 C 1022.06 758.016 1020.74 805.061 1020.62 813.62 C 1015.48 817.209 1009.44 820.178 1004.12 823.549 C 967.618 846.666 927.577 867.266 891.806 891.268 L 891.979 977.139 C 891.996 986.002 894.076 1022.23 888.05 1026.67 C 880.498 1026.22 867.456 1017.01 860.5 1012.69 C 852.934 1008.26 845.54 1003.54 838.335 998.549 C 836.841 954.711 837.779 902.636 838.079 858.328 C 846.324 850.095 884.149 829.742 896.384 822.391 C 935.268 799.031 974.966 776.561 1013.13 751.954 z"/>
  <path fill="#047857" d="M 1080.51 961.727 C 1084.21 962.966 1104.52 974.64 1107.55 977.085 C 1116.94 984.659 1180.54 1017.5 1181.47 1026.64 C 1175.68 1033.74 1113.54 1069.88 1100.56 1077.86 C 1082.15 1089.26 1062.26 1102.08 1043.38 1112.62 C 1040.19 1114.4 1038.41 1113.66 1035.53 1112.56 C 1031.38 1108.08 1032.92 1075.62 1032.94 1067.22 C 1032.9 1041.86 1033.08 1016.51 1033.46 991.157 C 1041.1 984.629 1070.36 967.926 1080.51 961.727 z"/>
  <path fill="#059669" d="M 969.745 960.823 C 975.382 960.891 1014.21 986.687 1020.82 991.678 C 1021.55 1023.4 1021.72 1070.52 1020.45 1103.17 C 1020.4 1104.45 1019.47 1104.43 1018.04 1105.03 C 1010.31 1104 995.438 1093.54 988.203 1089 C 968.694 1075.41 940.209 1059.69 919.494 1046.76 C 918.42 1033.86 918.94 1003.9 919.96 991.197 C 930.474 983.153 957.498 968.154 969.745 960.823 z"/>
  <path fill="#52525B" d="M 1033.35 752.54 C 1038.92 753.6 1071.73 774.82 1079.12 779.825 C 1092.96 789.206 1122.04 803.952 1133.87 814.341 C 1134.13 826.587 1134.17 838.836 1134 851.084 C 1123.55 858.145 1109.66 865.913 1098.58 872.454 C 1087.13 879.404 1046.3 905.558 1036.54 907.516 C 1033.28 906.498 1034.51 907.433 1032.62 904.758 C 1031.22 893.288 1030.73 759.217 1033.35 752.54 z"/>
  <path fill="#A1A1AA" d="M 1159.7 916.725 C 1159.67 906.999 1158.33 838.177 1160.99 832.664 C 1167.97 831.498 1178.52 840.254 1184.93 843.869 C 1190.18 846.836 1208.81 856.95 1209.04 862.926 C 1210.79 909.232 1210.2 956.198 1209.37 1002.55 C 1209.26 1008.71 1200.62 1013.45 1196.04 1016.81 C 1184.47 1010.14 1172.2 1001.88 1160.87 994.566 C 1160.5 991.171 1157.98 984.475 1158.17 981.73 C 1159.66 959.589 1160.76 938.966 1159.7 916.725 z"/>
  <path fill="#3F3F46" d="M 1040.39 922.453 C 1047.75 915.472 1123.73 869.274 1132.17 869.258 C 1135.19 873.408 1134.85 910.416 1135.07 918.18 C 1140.76 922.185 1146.48 926.155 1152.22 930.088 C 1153.15 933.567 1153.63 937.357 1156.31 939.483 L 1157.67 938.691 C 1159.75 931.587 1159.52 924.149 1159.7 916.725 C 1160.76 938.966 1159.66 959.589 1158.17 981.73 C 1157.98 984.475 1160.5 991.171 1160.87 994.566 L 1082.38 948.013 C 1069.11 940.088 1053.01 930.984 1040.39 922.453 z"/>
  <path fill="#10B981" d="M 1015.85 853.653 C 1018.3 854.099 1017.39 853.828 1019.58 855.311 C 1022.42 861.669 1020.89 906.421 1020.76 916.742 C 1013.11 922.48 985.944 937.751 976.605 943.201 C 961.736 951.878 939.658 966.347 924.941 973.585 C 923.261 972.773 922.128 972.084 920.521 971.143 C 916.486 963.59 918.039 923.557 918.084 912.215 C 930.977 903.409 946.33 895.211 959.965 887.291 C 978.775 876.386 997.404 865.172 1015.85 853.653 z"/>
  <path fill="#18181B" d="M 1023.53 930.051 C 1033.7 929.596 1045.76 939.212 1053.56 945.225 C 1057.42 968.525 1049.2 968.173 1030.36 978.815 C 1023.14 980.304 1007.56 969.705 1000.19 965.74 C 999.759 958.198 999.731 952.62 999.93 945.053 C 1006.12 939.259 1015.94 934.26 1023.53 930.051 z"/>
</svg>
